<svg viewBox="0 0 121 20" fill="none" xmlns="http://www.w3.org/2000/svg"><g clip-path="url(#a)" fill="#ABABAB"><path d="M5.55 9.17c0 .64.07 1.2.22 1.66.15.46.41.9.8 1.3.38.4.94.7 1.68.91.74.21 1.65.32 2.75.32h8.17v4.97h-8.2c-3.73 0-6.5-.84-8.28-2.54a8.7 8.7 0 0 1-2.69-6.62c0-2.73.9-4.94 2.69-6.63 1.79-1.7 4.55-2.54 8.28-2.54h8.2v4.98h-8.17c-2.1 0-3.52.36-4.3 1.1a4.06 4.06 0 0 0-1.15 3.09Zm31.31 10h-2.05c-2 0-3.76-.25-5.26-.75a9.07 9.07 0 0 1-3.59-2.07 8.45 8.45 0 0 1-1.98-3.03 10.38 10.38 0 0 1-.65-3.74c0-1.36.22-2.6.65-3.73a8.43 8.43 0 0 1 1.98-3.03 9 9 0 0 1 3.6-2.07c1.5-.5 3.24-.75 5.25-.75h2.05c2 0 3.75.25 5.26.75a9 9 0 0 1 3.59 2.07c.89.89 1.55 1.9 1.98 3.03.43 1.12.64 2.37.64 3.73 0 1.37-.2 2.62-.64 3.74a8.44 8.44 0 0 1-1.98 3.03c-.9.88-2.1 1.57-3.6 2.07-1.5.5-3.25.75-5.25.75Zm-2.02-5.06h2c2.22 0 3.75-.4 4.58-1.19a4.37 4.37 0 0 0 1.25-3.34c0-1.43-.42-2.55-1.26-3.34-.84-.79-2.37-1.18-4.58-1.18h-1.97c-1.16 0-2.14.1-2.94.33-.8.22-1.42.55-1.84.99a3.7 3.7 0 0 0-.88 1.42 5.72 5.72 0 0 0-.25 1.79c0 1.43.42 2.55 1.27 3.33.85.8 2.4 1.19 4.62 1.19Zm22.06-14.11v13.36h12.27v4.97h-17.5v-18.33h5.23Zm47.99 18.33v-5.52l-10.72-12.81h7.69l5.66 8.37 5.62-8.37h7.7l-10.73 12.8v5.53h-5.22Zm-14.21-15.79c-1.77-1.7-4.5-2.54-8.19-2.54h-8.32v4.96h2.45v.02h5.85c2.05 0 3.45.36 4.21 1.1a4.08 4.08 0 0 1 1.15 3.09c0 .64-.08 1.2-.22 1.66a3.33 3.33 0 0 1-2.45 2.21 9.8 9.8 0 0 1-2.7.32h-5.84 4.74-7.2v4.97h8.33c3.69 0 6.42-.84 8.19-2.54a8.76 8.76 0 0 0 2.65-6.62c0-2.73-.88-4.93-2.65-6.63Z"/></g><defs><clipPath id="a"><path fill="#fff" d="M0 0h120.83v20h-120.83z"/></clipPath></defs></svg>