<svg viewBox="0 0 155 36" fill="none" xmlns="http://www.w3.org/2000/svg"><path d="M44.74 0h-4.88v28.83h4.88v-28.83Zm-33.04 15.8c-1.97-2.22-3.37-3.45-5.3-5.29-.62-.64-.9-1.08-.9-2.12v-3.2c0-.47.39-.85.87-.85l.15.01.05.01h.02c.36.1.63.44.63.84v5.2h5.42v-5.14c0-3.82-3.04-5.18-6.35-5.18-3.31 0-6.3 1.42-6.29 5.2v4.03c0 1.34.3 2.05.76 2.89 1.46 2.29 4.4 4.35 5.68 5.87.71.8.77 1.45.77 2.1v4.09a.8.8 0 0 1-.05.27.88.88 0 0 1-.28.43.74.74 0 0 1-.28.14.86.86 0 0 1-1.1-.65c-.02-.06-.02-.11-.02-.17v-.01l-.02-.58v-5.62h-5.41v6.09c0 3.82 3.03 5.23 6.35 5.23s6.36-1.41 6.36-5.42v-4.67c0-1.89-.35-2.7-1.06-3.49m13.86-1.97v-3.09c0-3.45-2.69-5.17-5.74-5.17-3.05 0-5.7 1.72-5.7 5.17v13.17c0 3.46 2.62 5.19 5.7 5.19 3.09 0 5.74-1.73 5.74-5.19v-4.2h-4.88v4.78c0 .43-.31.77-.73.82h-.11a.7.7 0 0 1-.5-.19.82.82 0 0 1-.3-.64v-.08a2.1 2.1 0 0 1-.02-.29v-13.96a.83.83 0 0 1 1.66 0v.13l.02.27v3.27h4.87v.01Zm9.52-8.26c-1.3 0-2.95.89-3.15 2.3h-.18v-7.88h-4.88v28.83h4.88v-18.23c0-.35.22-.65.53-.77l.04-.01h.06a.83.83 0 0 1 1.03.8v18.22h4.88v-18.21c0-2.65-.11-5.03-3.22-5.03m17.79.26v18.22a.83.83 0 0 1-1.2.75.82.82 0 0 1-.48-.75v-18.22h-4.87v19.13c0 2.42.88 4.11 3.41 4.11 1.46 0 3.12-1.29 3.12-2.86h.07l-.04 2.58h4.87v-22.96h-4.88Zm21.2-.28c-1.96 0-2.5.85-3.36 2.38-.58-1.85-1.42-2.38-3.15-2.38-1.96 0-2.5.8-3.28 2.34h-.08v-2.05h-4.88v22.96h4.88v-18.2c0-.48.4-.86.88-.86s.86.38.86.86v18.2h4.88v-18.2c0-.48.4-.86.88-.86s.87.38.87.86v18.2h4.87v-18.98c0-1.73-.3-4.27-3.38-4.27m12.89 0a3.2 3.2 0 0 0-3.06 2.3h-.08v-7.88h-4.88v28.82h4.88v-2.42h.08c.41 1.62 1.6 2.7 3.06 2.7 3.03 0 3.42-2.57 3.42-5.15v-13.33c0-2.58-.39-5.04-3.42-5.04Zm-1.46 7.02v11.48c0 .46-.37.84-.84.84h-.03a.72.72 0 0 1-.4-.12.83.83 0 0 1-.4-.72v-13.48a.84.84 0 1 1 1.67 0v2Zm17.78-1.84c0-3.45-2.68-5.18-5.73-5.18-3.04 0-5.7 1.72-5.7 5.18v13.16c0 3.46 2.6 5.2 5.7 5.2s5.73-1.73 5.73-5.2v-4.2h-4.87v4.79c0 .46-.38.83-.84.83a.83.83 0 0 1-.84-.83v-6.39h6.56v-7.37.01Zm-4.87 3.93h-1.68v-4.5c0-.46.37-.84.83-.84.46 0 .83.38.83.84v4.5h.02Zm14.79-9.11c-1.7 0-2.75.85-3.45 2.26h-.07v-1.97h-4.88v22.96h4.88v-18.23a.84.84 0 0 1 .66-.81h.03v-.01l.14-.02c.46 0 .83.38.83.84v7.64h4.88v-8.63c0-2.5-.61-4.03-3.04-4.03m28.52 5.18c0-3.45-2.68-5.18-5.73-5.18-3.04 0-5.7 1.74-5.7 5.18v13.16c0 3.46 2.6 5.2 5.7 5.2s5.73-1.73 5.73-5.2v-4.2h-4.87v4.78a.84.84 0 0 1-1.7 0v-6.38h6.57v-7.36Zm-4.87 1.43v2.5h-1.69v-4.5c0-.46.38-.84.85-.84.46 0 .84.37.84.84v2Zm14.6-6.61c-1.68 0-2.74.85-3.45 2.26h-.07v-1.97h-4.88v22.96h4.88v-18.23a.84.84 0 0 1 1.67 0v7.64h4.88v-8.63c0-2.5-.61-4.03-3.03-4.03m-27.36.29v2.14h-.19c-.55-1.3-1.84-2.43-3.3-2.43-2.22 0-3.07 1.9-3.07 4.12v13.84c0 2.2.85 3.88 3.07 3.88 1.46 0 2.75-.93 3.3-2.2h.19v5.51a.83.83 0 0 1-1.67 0v-2.09h-4.88v1.27c0 3.78 2.35 5.2 5.74 5.2 3.4 0 5.7-1.42 5.7-5.2v-24.04h-4.89Zm0 16.72c0 .46-.38.84-.84.84a.84.84 0 0 1-.84-.84v-12a.84.84 0 0 1 1.67 0v12Z" fill="#B5B5B5"/></svg>