<svg viewBox="0 0 124 24" fill="none" xmlns="http://www.w3.org/2000/svg"><path d="M27.52 24h8.07c2.61 0 3.07-1.6 3.21-3.03.14-1.32 1.99-20.97 1.99-20.97h-8.03c-2.3 0-3.1 1.22-3.26 3.22-.11 1-1.98 20.78-1.98 20.78Zm55.78-5.63h-2.8l1.73-18.37h-11.01s-1.88 20.32-2 21.33c.01.7.32 1.38.85 1.88a3 3 0 0 0 2.02.79h19.07a3 3 0 0 0 1.93-.7c.53-.44.86-1.05.93-1.71l2.02-21.59h-11l-1.73 18.37Zm-78.29-18.37c-1.96 0-3.04.95-3.25 3.18-.09 1.11-.78 8.32-.87 9.36-.08 1.04.33 1.95 1.72 1.95h11.95l-.43 4.52h-2.84l.2-2.08h-11.01s-.31 3.59-.45 4.83c-.15 1.24.27 2.24 2 2.24h19.54c3.1 0 3.26-2.11 3.44-3.71.17-1.49.8-8.47.88-9.35.03-.19 0-.38-.06-.56a1.27 1.27 0 0 0-.3-.48 1.47 1.47 0 0 0-1.1-.4h-12.24l.42-4.51h2.85l-.2 2.07h11.01s.33-4.03.47-5.14c.15-1.11-.5-1.92-1.77-1.92h-19.96Zm38.57 0-2.25 24h22.02c1.86 0 2.9-1.07 3.07-2.93l.51-5.38a1.8 1.8 0 0 0-.12-1.05 1.97 1.97 0 0 0-.7-.84l-2.6-1.78 3.14-1.9c.66-.4.88-.88.97-1.8.17-2.1.41-4.49.47-5.15.14-1.73-.9-3.17-3.15-3.17h-21.36Zm13.35 4.99-.42 4.54h-2.81l.42-4.52 2.81-.02Zm-3.7 9.5h2.8l-.42 4.55h-2.8l.41-4.55Zm67.37-14.49h-21.74l-2.23 24h11l.7-7.43h2.8l-.7 7.43h11.01s.48-5.28.57-6.06a2 2 0 0 0-.12-1.18 2.22 2.22 0 0 0-.76-.96l-2.51-1.72s2.24-1.34 2.94-1.78c.7-.45 1.09-.93 1.2-2.29.11-1.36.6-6.23.66-7.14.03-.37-.03-.73-.16-1.07a2.67 2.67 0 0 0-.6-.92 2.91 2.91 0 0 0-2.05-.88Zm-11.82 11.6.54-5.95h2.8l-.54 5.95h-2.8Z" fill="#AEAFB0"/></svg>