<svg viewBox="0 0 161 37" fill="none" xmlns="http://www.w3.org/2000/svg"><path d="M3.3 7.93a18.32 18.32 0 0 0 .99 22.28v-16.2c0-1.13 0-2.16-.21-3.08-.1-.88-.4-1.85-.79-3Zm10.9 3.41c-.94 0-2 .1-3.26.51-.42.21-.95.41-1.48.72v11.7a5.53 5.53 0 0 0 4.22 1.85c2.11 0 3.8-.61 4.86-1.84 1.15-1.34 1.8-3.08 1.8-5.45 0-2.36-.64-4.2-1.7-5.54a5.43 5.43 0 0 0-4.43-1.95m128.05 24.51h-73.4v-.02c-8.34-1.09-14.79-8.43-14.79-17.33 0-8.9 6.45-16.23 14.8-17.32v-.02h73.4c9.27 0 16.8 7.78 16.8 17.34 0 9.57-7.53 17.35-16.8 17.35Zm-132.8-24.4 3.48-3.4.63-.3c.74-.31 1.7-.41 2.85-.41 1.6 0 3 .35 4.2 1.03v-2.37c0-1.44-.1-2.57-.31-3.5a8.93 8.93 0 0 0-.74-2.5h-1.16a18.4 18.4 0 0 0-15 7.75h6.05v3.7Zm132.28-11.45h-115.44c-.15.56-.28 1.16-.4 1.79-.1 1.13-.2 2.77-.2 4.83v4.83l3.9-3.7c1.27-.31 2.32-.41 3.27-.41 2.32 0 4.01.5 5.28 1.74 1.16 1.23 1.8 2.98 1.8 5.34v9.44a9.5 9.5 0 0 0 2.68 1.96c.95.41 2 .72 2.96.72 1.06 0 1.9-.31 2.53-.82.63-.41.95-1.03.95-1.85 0-.51-.21-1.13-.74-1.75a21.65 21.65 0 0 0-3.06-2.16c-1.8-1.23-3.16-2.36-3.9-3.38a4.95 4.95 0 0 1-1.17-3.19c0-1.75.85-3.18 2.54-4.41 1.69-1.13 3.7-1.65 6.22-1.65.95 0 1.8 0 2.43.1.64.21 1.48.42 2.32.72v4.11a14.47 14.47 0 0 0-2.21-1.54 6.6 6.6 0 0 0-2.54-.4c-.94 0-1.8.2-2.53.6a1.96 1.96 0 0 0-.95 1.65c0 .72.21 1.23.64 1.75.42.61 1.26 1.24 2.53 2.05 2.1 1.35 3.6 2.47 4.44 3.5a5.66 5.66 0 0 1 1.16 3.28c0 1.85-.74 3.39-2.22 4.62a9.67 9.67 0 0 1-5.8 1.75c-1.27 0-2.33 0-3.28-.2a21 21 0 0 1-2.16-.4l.1.19h-7.17a5.9 5.9 0 0 0 .85-2.36c.2-.93.31-2.26.31-3.9v-7.91c0-1.24-.42-2.16-1.06-2.78-.73-.61-1.8-.82-3.16-.82-.95 0-2.22.2-3.8.82l-1.16.51v10.17c0 1.64.1 2.98.2 3.8.22.92.54 1.75.85 2.47h-7.28v-.02c-.95.28-2 .43-3.14.43a11.1 11.1 0 0 1-6.87-2.16v2.26c0 1.13 0 2.16.22 3.08.07.67.26 1.38.51 2.19a18.3 18.3 0 0 0 8.23 1.95h123.33a18.44 18.44 0 0 0 18.41-18.42 18.44 18.44 0 0 0-18.42-18.42Z" fill="#ABABAB"/><path d="M106.94 16.92a12 12 0 0 1 1.75.55l.25-.88.25-.89h-6l-.32.94-.31.93c.55-.3 1.25-.5 2.1-.63l.45-.05v4.47c0 .6-.03 1.08-.08 1.42a3.1 3.1 0 0 1-.3.92h2.35a3.2 3.2 0 0 1-.3-.93c-.05-.34-.07-.81-.07-1.4v-4.5l.24.05h-.01Zm15 4.44v-3.31c0-.63.03-1.11.08-1.45.05-.35.14-.64.27-.9h-2.28c.13.27.21.56.27.9.05.35.08.83.08 1.45v.95h-2.8v-.95a7.86 7.86 0 0 1 .33-2.34h-2.28a8.02 8.02 0 0 1 .34 2.34v3.3c0 .64-.02 1.12-.07 1.47-.05.34-.13.63-.27.88h2.28a3 3 0 0 1-.26-.9c-.05-.34-.08-.82-.08-1.44v-1.26h2.8v1.26c0 .63-.02 1.11-.07 1.46a2.8 2.8 0 0 1-.26.88h2.28a3 3 0 0 1-.27-.9c-.05-.34-.08-.82-.08-1.44m5.96 1.23h-2.72a13 13 0 0 0 .32-1.45c.2-1.26.33-2.7.36-4.33h2.04v5.77Zm2.58 0h-.99v-4.55a7.86 7.86 0 0 1 .34-2.34h-5.8a6.4 6.4 0 0 1 .27 2.34c-.09 1.1-.21 2.13-.4 3.06-.1.6-.24 1.1-.37 1.48h-.93a6.94 6.94 0 0 1 0 2.87h1.98a4.52 4.52 0 0 1-.15-1.07v-.69h4.21c.02.22.02.45 0 .7-.02.44-.06.8-.14 1.06h1.98a7.32 7.32 0 0 1 0-2.87m14.86-6.88-.31.94-.32.92c.56-.29 1.25-.5 2.1-.62l.45-.05v4.47c0 .6-.03 1.07-.08 1.42a3.2 3.2 0 0 1-.3.92h2.36a3.2 3.2 0 0 1-.3-.93 10.1 10.1 0 0 1-.08-1.41v-4.49l.24.05a12 12 0 0 1 1.75.55l.25-.88.26-.89h-6.02Zm-69.14 6.9h-1.05a1.32 1.32 0 0 1 0-2.63h1.05v2.63Zm1.6-1.25v-3.13c0-.9-.22-1.57-.65-2.02-.44-.45-1.08-.68-1.94-.68a4.52 4.52 0 0 0-1.81.38l-.44 1.54c.33-.23.63-.4.9-.5.28-.1.56-.15.85-.15.46 0 .82.13 1.1.39.26.25.4.6.4 1.04v.72l-2.36.97c-.5.21-.9.5-1.2.86-.3.37-.44.75-.44 1.16 0 .62.2 1.1.63 1.43.42.33 1.02.5 1.8.5l.33-.01 1.24-.93v.77h1.88a2.47 2.47 0 0 1-.22-.83c-.05-.34-.07-.84-.07-1.51m5.77.53a1.8 1.8 0 0 1-1.53.72c-.53 0-.98-.24-1.34-.71v-4.4c.17-.1.33-.18.48-.24.38-.15.71-.23 1-.23.6 0 1.06.26 1.4.76.35.51.52 1.2.52 2.07a3.4 3.4 0 0 1-.53 2.03m-.67-6.35c-.35 0-.66.05-.9.17l-.2.1-1.1 1.29v-1.39h-1.93a8.03 8.03 0 0 1 .34 2.34v5.85a8.07 8.07 0 0 1-.34 2.34h2.28a7.91 7.91 0 0 1-.35-2.33v-.83c.62.53 1.34.8 2.16.8.93 0 1.64-.35 2.14-1.06.5-.71.74-1.71.74-3.02 0-1.3-.26-2.29-.79-3.08a2.37 2.37 0 0 0-2.06-1.18m12.43 1.11c.07-.34.2-.66.4-.94h-2.1c0 .15-.07.34-.2.58-.13.25-.3.5-.52.75l-1.9 2.33-2.15-2.6a2.38 2.38 0 0 1-.35-.54 1.23 1.23 0 0 1-.14-.52h-2.14l.55.65v5a8.09 8.09 0 0 1-.34 2.35h2.28a9.62 9.62 0 0 1-.27-1.18 8.58 8.58 0 0 1-.08-1.16v-3.09l2.63 3.18 2.62-3.18v3.09a8.17 8.17 0 0 1-.34 2.34h2.28a7.95 7.95 0 0 1-.34-2.34v-3.31c0-.6.03-1.07.1-1.41m4.97 5.99c-.74 0-1.34-.28-1.77-.82a3.4 3.4 0 0 1-.66-2.2c0-.94.2-1.64.62-2.17s.97-.8 1.68-.8c.35 0 .67.08.96.22.3.14.58.37.88.69l.08-1.85a9.16 9.16 0 0 0-1.79-.18c-1.17 0-2.15.43-2.93 1.26a4.46 4.46 0 0 0-1.17 3.16 3.9 3.9 0 0 0 1.06 2.81c.7.75 1.58 1.12 2.64 1.12a6.1 6.1 0 0 0 1.67-.23l.63-1.53c-.47.2-.83.32-1.11.4a3.2 3.2 0 0 1-.8.11m12.52-.02h-1.05a1.31 1.31 0 1 1 0-2.63h1.05v2.63Zm1.6-1.25v-3.13c0-.89-.22-1.57-.65-2.02-.44-.45-1.09-.67-1.95-.67a4.51 4.51 0 0 0-1.8.38l-.45 1.53c.33-.23.63-.4.9-.5.28-.1.56-.14.86-.14.45 0 .81.12 1.09.38.26.26.4.6.4 1.04v.73l-2.35.97c-.5.2-.9.5-1.2.86-.3.36-.45.75-.45 1.16 0 .62.22 1.1.64 1.43.42.33 1.02.5 1.8.5l.32-.02 1.24-.92v.76h1.89a2.3 2.3 0 0 1-.22-.82c-.05-.34-.07-.85-.07-1.52m20.47 1.25h-1.05a1.32 1.32 0 1 1 0-2.63h1.05v2.63Zm1.6-1.25v-3.13c0-.89-.22-1.57-.65-2.02-.44-.45-1.08-.67-1.95-.67a4.55 4.55 0 0 0-1.8.38l-.45 1.53c.33-.23.63-.4.9-.5.28-.1.56-.14.86-.14.45 0 .81.12 1.09.38.27.26.4.6.4 1.04v.73l-2.35.97a3 3 0 0 0-1.2.86c-.3.36-.45.75-.45 1.16 0 .62.21 1.1.63 1.43.43.33 1.03.5 1.8.5l.33-.02 1.24-.92v.76h1.88a2.7 2.7 0 0 1-.22-.82c-.04-.34-.06-.85-.06-1.52m5.79.53a1.8 1.8 0 0 1-1.53.72c-.53 0-.98-.24-1.35-.7v-4.4c.17-.1.33-.18.5-.25.36-.15.7-.22.99-.22.59 0 1.06.25 1.4.76.35.5.52 1.2.52 2.06 0 .87-.17 1.56-.53 2.04m-.67-6.36c-.35 0-.66.06-.91.17l-.2.1-1.1 1.3v-1.4h-1.92a8.63 8.63 0 0 1 .34 2.34v5.85a8.06 8.06 0 0 1-.34 2.34h2.28a8.76 8.76 0 0 1-.35-2.33v-.83c.62.53 1.34.8 2.17.8.92 0 1.63-.35 2.13-1.06.5-.7.75-1.7.75-3.01 0-1.3-.27-2.3-.8-3.08-.52-.8-1.2-1.19-2.05-1.19m-72.4 4.88c-.6.52-1.39.8-2.38.87l-.02-.91v-4.85l.03-.92c.98.07 1.77.36 2.36.88a3.1 3.1 0 0 1 1.02 2.47 3.1 3.1 0 0 1-1.01 2.46m-4.15-.04-.02.91a3.86 3.86 0 0 1-2.36-.87 3.08 3.08 0 0 1-1.02-2.47 3.1 3.1 0 0 1 1.01-2.47 4 4 0 0 1 2.37-.88l.02.93v4.85Zm5.55-5.81a6.19 6.19 0 0 0-3.66-1.22c.05-.38.14-.77.26-1.16h-2.55c.1.4.2.8.26 1.16a6.2 6.2 0 0 0-3.64 1.2 4.11 4.11 0 0 0-1.54 3.4c0 1.45.51 2.58 1.53 3.4a6.3 6.3 0 0 0 3.65 1.2c-.06.37-.15.76-.26 1.16h2.55a8.7 8.7 0 0 1-.26-1.16 6.24 6.24 0 0 0 3.65-1.2 4.1 4.1 0 0 0 1.52-3.4 4.1 4.1 0 0 0-1.52-3.38" fill="#ABABAB"/></svg>