<svg viewBox="0 0 194 24" fill="none" xmlns="http://www.w3.org/2000/svg"><g clip-path="url(#a)" fill="#ABABAB"><path d="M12.89 23.94h-12.88v-5.04l12.88-9.01v14.05Zm1.74-19.54 8.98 6.3v-10.36h-23.61v14.3l14.63-10.24Zm1.75 5.49v14.05h7.24v-8.98l-7.24-5.07Zm172.5-9.89h-6.23v2.5h6.23v-2.5Zm-147.66 8.22v12.96h-3.73v-16.35h12.6v3.39h-8.87Zm10.45 12.45c.94-1.68 1.4-4.3 1.4-7.87v-7.97h13.78v16.35h-3.74v-12.96h-6.3v4.23c0 4.18-.44 7.07-1.33 8.73h-3.8v-.51Zm24.03-15.84h5.36l6.44 16.35h-4.1l-1.26-3.39h-7.52l-1.26 3.39h-4.08l6.42-16.35Zm5.18 9.58-2.5-6.68-2.5 6.68h5Zm9.05-9.58h8.4c3.18 0 5.26 1.66 5.26 4.2 0 1.78-.88 3.02-2.68 3.74 2.05.59 3.27 1.92 3.27 3.86 0 2.9-2.18 4.55-5.73 4.55h-8.52v-16.35Zm8.3 6.3c1.14 0 1.75-.55 1.75-1.5 0-.85-.63-1.41-1.76-1.41h-4.55v2.93l4.55-.01Zm.46 6.66c1.14 0 1.87-.63 1.87-1.63 0-1-.73-1.64-1.87-1.64h-5.02v3.27h5.02Zm16.38.24c2.78 0 4.43-1.78 4.97-4.51l3.43 1.38c-.95 4.02-3.94 6.51-8.42 6.51-5.21 0-8.58-3.6-8.58-8.4a8.31 8.31 0 0 1 8.58-8.41c4.32 0 7.05 2.38 7.75 5.44l-3.43 1.54a4.25 4.25 0 0 0-4.4-3.6c-2.61 0-4.76 1.99-4.76 5.02a4.8 4.8 0 0 0 4.86 5.03Zm24.42-9.81h-5.6v12.96h-3.74v-12.96h-5.6v-3.39h14.94v3.39Zm6.34 12.96h-3.73v-16.35h7.82c3.64 0 5.49 2.36 5.49 5.12 0 2.66-1.9 5.16-5.5 5.16h-4.08v6.07Zm3.86-9.46c1.21 0 1.98-.63 1.98-1.75 0-1.13-.77-1.76-1.98-1.76h-3.86v3.51h3.86Zm25.33 1.28c.1 4.56-3.95 8.53-8.64 8.41-4.7.12-8.73-3.85-8.64-8.4-.1-4.56 3.94-8.5 8.64-8.41 4.7-.1 8.73 3.86 8.64 8.4Zm-3.74 0c0-2.98-2.17-4.9-4.9-4.9a4.72 4.72 0 0 0-4.9 4.9c0 3 2.17 4.91 4.9 4.91 2.73 0 4.9-1.91 4.9-4.9Zm12.92 8.18h-6.4v-16.35h3.75v13.86l5.98-13.86h6.4v16.35h-3.74v-13.85l-5.99 13.85Z"/></g><defs><clipPath id="a"><path fill="#fff" d="M0 0h193.95v24h-193.95z"/></clipPath></defs></svg>