<svg viewBox="0 0 185 36" fill="none" xmlns="http://www.w3.org/2000/svg"><path d="M18.45 0c-10.2 0-18.45 8.05-18.45 18s8.25 18 18.45 18 18.45-8.05 18.45-18-8.33-18-18.45-18Zm-2.64 25.63-1.36 3.9a12.29 12.29 0 0 1-8.5-11.7c0-5.3 3.4-9.95 8.59-11.7l1.36 3.9a8.06 8.06 0 0 0-5.61 7.72 7.94 7.94 0 0 0 5.52 7.88Zm6.38 3.98-1.27-3.98a8.14 8.14 0 0 0 5.78-7.8c0-3.56-2.3-6.63-5.7-7.71l1.36-3.98a12.33 12.33 0 0 1 8.67 11.7 12.47 12.47 0 0 1-8.84 11.77Zm159.71-8.38 1.98 2.37a9.1 9.1 0 0 1-6.67 2.69c-1.98 0-3.38-.33-4.61-.9-2.64-1.3-3.96-3.91-3.96-7.1 0-4.8 3.3-8.39 8.16-8.39 5.43 0 8.07 4 7.66 9.21h-12.36c.09 1.3.83 2.53 1.9 3.18.9.57 1.97.82 3.37.82a5.9 5.9 0 0 0 4.53-1.88Zm-9.63-4.89h8.73c-.25-1.87-1.81-3.5-4.28-3.5-2.64 0-4.2 1.79-4.45 3.5Zm-83.04 9.54h4.45l-7-8.07 6.92-7.58h-4.37l-5.27 6.03h-1.56v-6.03h-3.38v15.57h3.38v-6.2h1.56l5.27 6.28Zm14.58-12.8c-2.88 0-4.77 2.2-4.77 4.97 0 2.77 1.9 4.98 4.77 4.98 2.89 0 4.7-2.12 4.7-4.98 0-2.69-1.73-4.97-4.7-4.97Zm.58-3.18c4.45 0 7.74 3.42 7.74 8.15 0 4.65-3.2 8.24-7.74 8.24a6.8 6.8 0 0 1-5.1-2.04v8.15h-3.47v-22.1h3.38v1.88a6.34 6.34 0 0 1 5.2-2.28Zm44.81.4h-14.08v3.1h5.35v12.48h3.46v-12.47h5.35v-3.1h-.08Zm-72.57 0h-14.08v3.1h5.35v12.48h3.38v-12.47h5.35v-3.1Zm-18.29 7.83c0-2.93-2.05-5.05-4.94-5.05a4.87 4.87 0 0 0-4.94 5.05c0 2.94 2.06 5.06 4.94 5.06 2.8 0 4.94-2.12 4.94-5.06Zm-13.34 0c0-4.64 3.62-8.15 8.48-8.15s8.49 3.5 8.49 8.15-3.63 8.24-8.49 8.24-8.48-3.59-8.48-8.24Zm120.92-7.82v15.57h-3.37v-10.03l-8.24 10.03h-2.72v-15.57h3.38v10.03l8.24-10.03h2.71Zm-33.11 15.57h-3.38v-15.57h3.38v15.57Zm-8.81-5.3c0-1.39-1-2.36-2.31-2.36h-3.46v4.8h3.46c1.32 0 2.3-1.05 2.3-2.44Zm3.46 0c0 3.1-2.31 5.3-5.6 5.3h-6.92v-15.57h3.37v5.05h3.87c3.22 0 5.28 2.04 5.28 5.22Z" fill="#ABABAB"/></svg>