<svg viewBox="0 0 63 63" fill="none" xmlns="http://www.w3.org/2000/svg"><path fill-rule="evenodd" clip-rule="evenodd" d="M4.44 4.43c-4.43 4.43-4.43 11.55-4.43 25.81v2.52c0 14.26 0 21.38 4.43 25.81 4.42 4.43 11.55 4.43 25.8 4.43h2.53c14.25 0 21.38 0 25.8-4.43 4.44-4.43 4.44-11.55 4.44-25.81v-2.52c0-14.26 0-21.38-4.43-25.81s-11.56-4.43-25.81-4.43h-2.52c-14.26 0-21.39 0-25.81 4.43Zm6.2 14.73c.34 16.38 8.53 26.23 22.89 26.23h.81v-9.37c5.28.52 9.27 4.38 10.87 9.37h7.46a20.72 20.72 0 0 0-10.8-13.15c3.37-1.95 8.1-6.67 9.22-13.08h-6.77c-1.47 5.2-5.83 9.93-9.98 10.37v-10.37h-6.77v18.17c-4.2-1.05-9.5-6.14-9.74-18.17h-7.19Z" fill="#B5B5B5"/></svg>