<svg viewBox="0 0 149 51" fill="none" xmlns="http://www.w3.org/2000/svg"><path fill-rule="evenodd" clip-rule="evenodd" d="M36.76 23.45a13.95 13.95 0 1 1-6.5-11.8l3.9-2.75a18.45 18.45 0 1 0 6.7 10.66l-4.14 2.9c.03.33.04.66.04.99Z" fill="#ABABAB"/><path d="m110.42 15.8 4.88-3.6h-16.32v21.6h16.32v-3.6h-11.66v-5.52h9.96v-3.6h-9.96v-5.27h6.78Zm-23.54 4.82h-5.79v-4.81h9.27l5-3.6h-19.04v21.6h9.95c5.57 0 8.8-2.48 8.8-6.8 0-4.13-2.9-6.4-8.19-6.4Zm-.8 9.58h-4.99v-5.98h5c3.04 0 4.45 1 4.45 3 0 2.02-1.52 2.98-4.45 2.98Zm43.54-18h-8.88v21.6h4.67v-6.11h4.25c5.67 0 9.2-2.97 9.2-7.74 0-4.78-3.53-7.75-9.24-7.75Zm-.1 11.88h-4.15v-8.27h4.15c3 0 4.64 1.48 4.64 4.14 0 2.65-1.63 4.13-4.64 4.13Zm-61.83 5.6a8.47 8.47 0 0 1-4.07 1.04c-4.25 0-7.31-3.05-7.31-7.25s3.06-7.25 7.3-7.25a7.08 7.08 0 0 1 4.29 1.37l3.39-2.52-.22-.21c-1.96-1.76-4.6-2.66-7.6-2.66-3.24 0-6.2 1.12-8.34 3.12a10.84 10.84 0 0 0-3.28 8c-.04 3.06 1.14 6 3.28 8.15a11.78 11.78 0 0 0 8.31 3.23c3.39 0 6.35-1.18 8.35-3.34l-3.03-2.26-1.08.58Zm-30.73-17.48a18.66 18.66 0 0 1 2.2 3.5l-16.6 11.8-6.98-4.22v-5.05l6.94 4.18 14.44-10.2Z" fill="#ABABAB"/></svg>