<svg viewBox="0 0 157 37" fill="none" xmlns="http://www.w3.org/2000/svg"><path d="M1.38 27.46v-26.1h34.8l-12.65 14.33h-11.6l-10.55 11.77Zm34.8-16.86v25.56h-34.8l12.65-14h11.6l10.55-11.56Zm111.04 15.36v-12.04h9.64v2.87h-6.96l.78-.77v9.94h-3.47Zm-8.45.18a4.54 4.54 0 0 1-4.45-2.7 8.52 8.52 0 0 1-.63-3.5c0-1.41.2-2.58.6-3.49a4.3 4.3 0 0 1 1.75-2.04 5.3 5.3 0 0 1 2.73-.67 5.93 5.93 0 0 1 5.2 2.93c.53.93.8 2.02.8 3.27 0 1.27-.27 2.37-.8 3.3a5.5 5.5 0 0 1-2.16 2.14c-.9.51-1.9.76-3.04.76Zm-7.12 4.17v-16.39h3.33v2.46l-.06 3.59.22 3.56v6.78h-3.5Zm6.51-7.03a2.95 2.95 0 0 0 2.64-1.55c.29-.5.43-1.1.43-1.79 0-.7-.14-1.3-.43-1.79a2.88 2.88 0 0 0-2.64-1.54 2.89 2.89 0 0 0-2.66 1.54c-.27.5-.4 1.1-.4 1.8 0 .68.13 1.28.4 1.78a2.89 2.89 0 0 0 2.66 1.55Zm-15.49 2.86a7.12 7.12 0 0 1-3.43-.8 6.27 6.27 0 0 1-2.35-2.2c-.57-.94-.85-2-.85-3.2a6 6 0 0 1 .85-3.2 6.04 6.04 0 0 1 2.35-2.2c1-.53 2.14-.8 3.43-.8 1.26 0 2.4.27 3.4.8a5.9 5.9 0 0 1 2.35 2.18 6 6 0 0 1 .85 3.22c0 1.2-.28 2.26-.85 3.2a6.06 6.06 0 0 1-2.35 2.2c-1 .54-2.14.8-3.4.8Zm0-2.86a2.89 2.89 0 0 0 2.66-1.54c.27-.51.4-1.11.4-1.8 0-.7-.13-1.3-.4-1.79a2.88 2.88 0 0 0-2.66-1.54c-.59 0-1.1.13-1.57.4-.46.27-.84.65-1.12 1.14-.27.5-.4 1.1-.4 1.8 0 .68.13 1.28.4 1.78a3.02 3.02 0 0 0 2.69 1.55Zm-15.02 2.68v-13.55l.83.83h-5.82v-2.95h13.59v2.95h-5.83l.81-.83v13.55h-3.58Zm-11.98-4.9v-2.8h6.34v2.8h-6.34Zm-5.07 4.9-4.87-7.55 2.93-1.77 6.07 9.32h-4.12Zm-10.18 0v-15.67h3.6v15.67h-3.6Zm2.55-6.32v-3.02h5.47v3.02h-5.47Zm6.03-1.11-3.34-.4 5.08-7.84h3.83l-5.57 8.24Zm-21.55.9v-2.78h7.74v2.78h-7.74Zm2.06-9.4c1.17 0 2.26.2 3.24.6a7.47 7.47 0 0 1 4.28 4.25c.4.99.6 2.07.6 3.25a8.5 8.5 0 0 1-.6 3.24 7.75 7.75 0 0 1-7.52 4.86 9.5 9.5 0 0 1-3.77-.71 7.26 7.26 0 0 1-2.77-2.09l2.3-2.15c.56.63 1.17 1.1 1.84 1.42a5.4 5.4 0 0 0 4.07.08 4.38 4.38 0 0 0 2.42-2.61c.23-.62.34-1.3.34-2.04a5.9 5.9 0 0 0-.34-2.04 4.15 4.15 0 0 0-.94-1.57 4.5 4.5 0 0 0-3.34-1.41 5.17 5.17 0 0 0-4.05 1.86l-2.3-2.15a7.26 7.26 0 0 1 2.77-2.08 9.5 9.5 0 0 1 3.77-.72Zm-16.78 15.93v-13.55l.82.83h-5.82v-2.95h13.6v2.95h-5.83l.8-.83v13.55h-3.57Z" fill="#ABABAB"/></svg>