<svg viewBox="0 0 150 46" fill="none" xmlns="http://www.w3.org/2000/svg"><g clip-path="url(#a)" fill-rule="evenodd" clip-rule="evenodd"><path d="M5.92 5.89h15.47l-5.91-5.89h-15.48v15.4l5.92 5.89v-15.4Zm18.67 0h15.47v15.4l5.92-5.9v-15.39h-15.47l-5.92 5.89Zm15.47 18.58v15.4h-15.47l5.92 5.88h15.47v-15.4l-5.92-5.89Zm-18.67 15.4h-15.47v-15.4l-5.92 5.88v15.4h15.48l5.91-5.89Z" fill="#ABABAB"/><path d="M83.63 34.87c1.98 0 3.58 1.79 3.58 4 0 2.2-1.6 3.99-3.58 3.99-1.97 0-3.58-1.8-3.58-4s1.6-4 3.58-4Zm0-3.05a7.08 7.08 0 0 1 7.13 7.04c0 3.89-3.2 7.04-7.13 7.04a7.08 7.08 0 0 1-7.12-7.04 7.09 7.09 0 0 1 7.12-7.04Zm16.67 3.05c1.22 0 2.37.54 3.01 1.58l2.34-2.23a7.15 7.15 0 0 0-12.48 4.64c0 3.89 3.2 7.04 7.13 7.04 2.18 0 4.13-.97 5.44-2.5l-2.43-2.07a3.53 3.53 0 0 1-3.01 1.53c-1.98 0-3.58-1.8-3.58-4s1.6-4 3.58-4Zm23.55 4.92h10.24a6.96 6.96 0 0 0-6.82-7.96 6.96 6.96 0 0 0-6.87 7.03 6.96 6.96 0 0 0 6.87 7.04c2.17 0 4.65-.37 5.91-1.97l-1.56-2.25c-.79 1.12-2.86 1.43-4.19 1.43-1.75 0-3.22-1.42-3.58-3.32Zm.08-2.2c.46-1.72 1.86-2.98 3.5-2.98 1.65 0 3.04 1.26 3.5 2.99h-7Zm-16.12-5.44h11.01v3.02h-3.8v10.4h-3.4v-10.4h-3.81v-3.02Zm31.96 6.5-4.63-6.5h4.1l2.77 4.15 2.77-4.15h4.1l-4.64 6.5 4.85 6.93h-3.96l-3.12-4.5-3.13 4.5h-3.95l4.84-6.93Zm2.24-1.72-.02.03h.03l-.01-.03Zm-73.78-6.55c1.48 0 2.68 1.2 2.68 2.66 0 1.47-1.2 2.66-2.68 2.66h-4.5v-5.32h4.5Zm-8.24-3.16h9.01c3.23 0 5.85 2.6 5.85 5.82a5.84 5.84 0 0 1-5.85 5.83h-5.28v6.7h-3.73v-18.35Z" fill="#000"/><path d="M83.63 34.87c1.98 0 3.58 1.79 3.58 4 0 2.2-1.6 3.99-3.58 3.99-1.97 0-3.58-1.8-3.58-4s1.6-4 3.58-4Zm0-3.05a7.08 7.08 0 0 1 7.13 7.04c0 3.89-3.2 7.04-7.13 7.04a7.08 7.08 0 0 1-7.12-7.04 7.09 7.09 0 0 1 7.12-7.04Zm16.67 3.05c1.22 0 2.37.54 3.01 1.58l2.34-2.23a7.15 7.15 0 0 0-12.48 4.64c0 3.89 3.2 7.04 7.13 7.04 2.18 0 4.13-.97 5.44-2.5l-2.43-2.07a3.53 3.53 0 0 1-3.01 1.53c-1.98 0-3.58-1.8-3.58-4s1.6-4 3.58-4Zm23.55 4.92h10.24a6.96 6.96 0 0 0-6.82-7.96 6.96 6.96 0 0 0-6.87 7.03 6.96 6.96 0 0 0 6.87 7.04c2.17 0 4.65-.37 5.91-1.97l-1.56-2.25c-.79 1.12-2.86 1.43-4.19 1.43-1.75 0-3.22-1.42-3.58-3.32Zm.08-2.2c.46-1.72 1.86-2.98 3.5-2.98 1.65 0 3.04 1.26 3.5 2.99h-7Zm-16.12-5.44h11.01v3.02h-3.8v10.4h-3.4v-10.4h-3.81v-3.02Zm31.96 6.5-4.63-6.5h4.1l2.77 4.15 2.77-4.15h4.1l-4.64 6.5 4.85 6.93h-3.96l-3.12-4.5-3.13 4.5h-3.95l4.84-6.93Zm2.24-1.72-.02.03h.03l-.01-.03Zm-73.78-6.55c1.48 0 2.68 1.2 2.68 2.66 0 1.47-1.2 2.66-2.68 2.66h-4.5v-5.32h4.5Zm-8.24-3.16h9.01c3.23 0 5.85 2.6 5.85 5.82a5.84 5.84 0 0 1-5.85 5.83h-5.28v6.7h-3.73v-18.35Z" fill="#ABABAB"/></g><defs><clipPath id="a"><path fill="#fff" d="M0 0h149.4v45.9h-149.4z"/></clipPath></defs></svg>