<svg viewBox="0 0 146 32" fill="none" xmlns="http://www.w3.org/2000/svg"><path d="m53.03 32-6.75-12.18h-4.23a11.4 11.4 0 0 0 6.35-2.68 8.98 8.98 0 0 0 3.44-7.1 8.98 8.98 0 0 0-3.44-7.1c-2.25-2-5.16-2.94-8.46-2.94h-14.81l-8.73 23.03-9-23.03h-7.4v32h1.85v-28.52l11.11 28.52h2.12l10.57-28.38v28.38h6.88v-12.05h6.22l6.6 12.05h7.68Zm-20.5-30.4h5.16c3.7 0 6.21 3.35 6.21 8.44s-2.5 8.44-6.21 8.44h-5.16v-16.87Zm59.37 22.5-3.3-6.16h-2.11a6.74 6.74 0 0 0 3.17-1.34 4.34 4.34 0 0 0 1.72-3.61 4.1 4.1 0 0 0-1.72-3.48 6.51 6.51 0 0 0-4.23-1.48h-7.14v16.07h3.44v-6.02h3.17l3.3 6.02h3.7Zm-10.17-6.83v-8.43h2.5c1.86 0 3.05 1.6 3.05 4.15 0 2.54-1.2 4.15-3.04 4.15h-2.51v.13Zm20.49 6.83c-2.38 0-4.36-.8-5.95-2.28a7.83 7.83 0 0 1-2.38-5.75c0-2.28.8-4.29 2.38-5.76 1.59-1.6 3.57-2.28 5.95-2.28 2.38 0 4.37.8 5.95 2.28a7.84 7.84 0 0 1 2.38 5.76 7.6 7.6 0 0 1-2.38 5.75c-1.58 1.61-3.57 2.28-5.95 2.28Zm0-.54c1.46 0 2.52-.66 3.44-2 .93-1.34 1.32-3.22 1.32-5.5 0-2.27-.4-4.01-1.32-5.48a3.83 3.83 0 0 0-3.44-2.01c-1.45 0-2.51.67-3.44 2a10.81 10.81 0 0 0-1.32 5.5c0 2.27.4 4.01 1.32 5.49.8 1.34 1.99 2 3.44 2Zm23.14-15.53v13.12c-.79 1.21-2.11 1.88-3.83 1.88-2.9 0-4.76-1.88-4.76-5.09v-9.9h-3.44v9.5c0 1.87.66 3.48 1.98 4.69 1.33 1.2 3.05 1.74 5.16 1.74a6.5 6.5 0 0 0 4.63-1.61c.27-.27.53-.54.66-.8l2.51 2.54h.53v-16.07h-3.44Zm14.02 0a6.5 6.5 0 0 1 4.23 1.48 4.27 4.27 0 0 1 1.72 3.48 4.5 4.5 0 0 1-1.72 3.61 6.51 6.51 0 0 1-4.23 1.48h-3.7v6.02h-3.44v-16.07h7.14Zm-1.06 9.24c1.86 0 3.05-1.6 3.05-4.15 0-2.54-1.2-4.15-3.05-4.15h-2.5v8.3h2.5Zm-66.91 0v4.02c-.4 1.47-1.72 2.4-3.57 2.4-1.59 0-2.65-.66-3.57-2-.93-1.34-1.32-3.08-1.32-5.36 0-4.82 2.24-7.63 5.95-7.63 1.32 0 2.38.27 3.17.94a2.91 2.91 0 0 1 1.32 2.54h.67c0-1.2-.67-2.4-1.72-3.2-1.06-.81-2.52-1.08-4.24-1.08-2.5 0-4.5.8-6.21 2.28a8.14 8.14 0 0 0-2.38 5.89c0 2.27.8 4.28 2.38 5.89a8.12 8.12 0 0 0 5.95 2.27c2.12 0 3.83-.67 4.63-1.87l1.85 1.74h.53v-6.83h-3.44Z" fill="#ABABAB"/></svg>