<svg viewBox="0 0 108 60" fill="none" xmlns="http://www.w3.org/2000/svg"><path d="M15.4 20h5.6v7.14h5.6v-7.14h5.6v19.29h-5.6v-7.86h-5.6v7.86h-5.6v-19.29Zm35.71 0v19.29h-4.9v-15h-3.5v5.71c0 2.42-.66 5.46-2.1 7.14-1.44 1.87-3.94 2.7-7 2.15v-5c2.88.56 3.5-.56 3.5-4.29v-10h14Zm4.9 0h4.9l3.5 11.43 2.8-11.43h5.6l2.1 19.29h-4.9l-1.4-10.72-2.8 10.72h-3.5l-2.8-10.72-1.4 10.72h-4.9l2.8-19.29Zm21 0h5.61v7.86l4.9-7.86h6.3l-7 9.29 7 10h-6.3l-4.9-7.86v7.86h-5.6v-19.29Zm-23.1-20c-32.45 0-53.91 12.11-53.91 30 0 17.7 21.46 30 53.91 30 32.64 0 53.92-12.3 53.92-30 0-17.89-21.28-30-53.92-30Zm0 57.14c-30.47 0-51.1-10.93-51.1-27.14-.01-16.4 20.63-27.14 51.1-27.14 30.65 0 51.12 10.74 51.12 27.14 0 16.21-20.47 27.14-51.12 27.14Zm0-51.43c-28.67 0-47.6 9.57-47.6 24.29 0 14.72 18.93 24.29 47.6 24.29s47.62-9.57 47.62-24.29c0-14.72-18.95-24.29-47.62-24.29Zm0 48.58c-28.3 0-46.9-9.94-46.9-24.29s18.6-24.29 46.9-24.29c28.31 0 46.91 9.94 46.91 24.29s-18.6 24.29-46.9 24.29Z" fill="#0E0E0E"/></svg>