<svg viewBox="0 0 36 36" fill="none" xmlns="http://www.w3.org/2000/svg"><path d="M0 18c0-5.6 0-8.39.91-10.6a12 12 0 0 1 6.5-6.49c2.2-.91 5-.91 10.59-.91 5.6 0 8.39 0 10.6.91a12 12 0 0 1 6.49 6.5c.91 2.2.91 5 .91 10.59 0 5.6 0 8.39-.91 10.6a12 12 0 0 1-6.5 6.49c-2.2.91-5 .91-10.59.91-5.6 0-8.39 0-10.6-.91a12 12 0 0 1-6.49-6.5c-.91-2.2-.91-5-.91-10.59Z" fill="#0E0E0E"/><path d="m18 8 2.05 4.36 4.38-2.02-1.23 4.66 4.65 1.26-3.94 2.78 2.75 3.96-4.8-.4-.44 4.8-3.42-3.4-3.42 3.4-.44-4.8-4.8.4 2.75-3.96-3.94-2.78 4.65-1.26-1.23-4.66 4.38 2.02 2.05-4.36Z" fill="#fff"/></svg>